<?xml version="1.0" standalone="no"?>
<!DOCTYPE svg PUBLIC "-//W3C//DTD SVG 20010904//EN"
 "http://www.w3.org/TR/2001/REC-SVG-20010904/DTD/svg10.dtd">
<svg version="1.0" xmlns="http://www.w3.org/2000/svg"
 width="640.000000pt" height="640.000000pt" viewBox="0 0 640.000000 640.000000"
 preserveAspectRatio="xMidYMid meet">
<metadata>
Created by potrace 1.14, written by Peter Selinger 2001-2017
</metadata>
<g transform="translate(0.000000,640.000000) scale(0.100000,-0.100000)"
fill="#000000" stroke="none">
<path d="M0 3200 l0 -3200 3200 0 3200 0 0 3200 0 3200 -3200 0 -3200 0 0
-3200z m5005 1941 c71 -32 195 -186 242 -301 40 -97 26 -164 -56 -273 -28 -37
-41 -64 -41 -85 0 -32 7 -42 69 -94 39 -33 40 -66 6 -134 -53 -106 -97 -140
-260 -199 -64 -23 -105 -64 -105 -103 0 -18 17 -55 44 -96 56 -86 71 -144 57
-222 -33 -175 -171 -327 -338 -369 -52 -13 -79 -14 -158 -6 -181 21 -262 12
-305 -34 -41 -43 -32 -81 32 -139 31 -28 59 -61 63 -73 13 -46 -39 -108 -120
-145 -63 -28 -182 -30 -304 -4 -201 43 -288 -8 -211 -123 43 -63 29 -102 -44
-122 -50 -14 -110 -7 -240 26 -158 40 -147 44 -278 -96 -62 -66 -114 -124
-116 -129 -2 -4 21 -28 50 -51 29 -24 66 -58 82 -76 23 -28 26 -36 15 -49 -11
-13 -17 -10 -53 24 -56 53 -131 112 -143 112 -5 0 -22 -14 -38 -30 -16 -17
-63 -54 -104 -82 -42 -28 -97 -69 -122 -90 -51 -41 -73 -47 -83 -21 -9 23 21
52 154 149 143 104 150 110 150 118 0 4 -30 42 -66 84 -37 42 -82 97 -101 124
-31 42 -39 48 -71 48 -21 0 -77 -11 -125 -25 -92 -25 -133 -25 -174 1 -28 18
-29 49 -3 92 57 93 -20 137 -170 97 -119 -32 -222 -10 -274 57 -36 49 -33 72
19 130 61 68 58 110 -7 144 -27 14 -48 15 -133 8 -139 -11 -160 -9 -220 21
-65 31 -124 94 -167 177 -29 57 -33 72 -33 149 0 79 3 90 31 136 67 107 57
136 -65 198 -102 51 -122 69 -156 142 -35 73 -32 96 15 143 22 22 40 48 40 57
0 9 -19 48 -42 87 -41 67 -43 75 -43 146 0 66 4 82 33 134 135 243 223 268
346 99 52 -71 63 -75 142 -42 89 37 121 13 184 -134 23 -55 35 -101 40 -157 7
-77 20 -110 44 -110 7 0 32 22 58 48 50 53 80 65 143 53 108 -20 193 -116 239
-270 21 -71 20 -112 -4 -191 -36 -115 -25 -241 21 -255 26 -9 56 9 124 75 73
71 130 110 160 110 67 0 102 -136 71 -279 -9 -41 -39 -124 -68 -185 -43 -91
-53 -121 -53 -165 0 -75 14 -82 105 -52 108 34 131 22 132 -72 1 -30 -14 -74
-52 -157 -65 -140 -75 -209 -38 -252 13 -14 52 -60 87 -102 35 -42 67 -76 70
-76 3 0 25 21 50 48 24 26 65 70 92 99 30 32 49 61 49 76 0 45 -30 122 -85
222 -69 124 -86 177 -75 235 13 74 58 87 166 50 71 -25 126 -29 148 -11 20 17
21 84 2 137 -7 22 -39 84 -70 138 -77 135 -101 216 -101 336 0 79 4 102 23
137 51 97 131 85 275 -41 96 -83 146 -116 177 -116 33 0 44 8 64 47 27 53 21
154 -14 258 -36 105 -37 135 -9 218 67 200 187 317 341 333 86 9 123 -5 183
-66 88 -89 132 -62 145 89 6 69 15 101 46 166 90 189 134 215 269 160 33 -14
70 -25 82 -25 14 0 47 29 100 87 109 120 170 145 258 104z m-3755 -3343 c26
-29 27 -82 0 -101 -19 -13 -19 -14 5 -35 55 -48 8 -132 -73 -132 -47 0 -82 10
-82 22 0 5 9 6 21 3 64 -21 139 6 139 48 0 41 -23 59 -78 65 -58 5 -71 22 -18
22 62 0 86 15 86 54 0 18 -7 39 -15 46 -18 15 -83 16 -98 1 -14 -14 -40 -14
-32 0 21 34 115 39 145 7z m240 -131 c54 -136 54 -137 41 -137 -4 0 -18 23
-29 50 l-21 51 -62 -3 -62 -3 -15 -47 c-8 -27 -21 -48 -28 -48 -8 0 -14 5 -14
10 0 6 5 10 10 10 6 0 10 5 10 11 0 10 41 116 86 226 19 45 16 49 84 -120z
m368 147 c39 -11 23 -22 -18 -13 -97 22 -169 -64 -141 -168 16 -60 49 -85 107
-82 27 1 51 -2 54 -7 3 -5 -17 -10 -45 -12 -63 -3 -108 23 -130 74 -53 127 43
242 173 208z m257 -14 c44 -27 58 -66 53 -141 -4 -56 -8 -65 -41 -95 -51 -48
-108 -48 -162 -1 -34 30 -39 39 -43 90 -5 67 9 107 50 142 37 31 97 33 143 5z
m150 -40 c21 -33 39 -60 41 -60 3 0 20 24 39 54 32 51 55 76 55 61 0 -3 -18
-34 -41 -67 -46 -69 -46 -68 20 -161 18 -26 31 -51 27 -54 -7 -8 -3 -12 -56
66 -49 73 -45 74 -102 -23 -15 -25 -32 -46 -37 -46 -6 0 3 21 19 48 66 106 66
103 34 153 -41 64 -54 89 -45 89 5 0 25 -27 46 -60z m310 45 c46 -19 61 -55
40 -99 -19 -39 -51 -56 -105 -56 l-40 0 0 -61 c0 -35 -4 -58 -9 -54 -5 3 -10
68 -10 145 l0 140 45 0 c24 0 60 -7 79 -15z m241 -93 c23 -59 49 -124 58 -144
10 -24 12 -38 5 -38 -6 0 -20 23 -32 50 l-21 50 -63 0 c-35 0 -63 -4 -63 -10
0 -17 -34 -90 -42 -90 -5 0 -8 2 -8 5 0 5 36 98 54 140 7 17 23 56 36 88 12
31 25 57 29 57 3 0 25 -49 47 -108z m128 41 l1 -58 83 -3 82 -3 0 66 c0 48 3
66 12 63 17 -6 18 -280 0 -286 -9 -3 -12 15 -12 66 0 38 -2 71 -4 73 -2 2 -40
2 -83 -1 l-78 -5 0 -68 c0 -37 -3 -67 -7 -67 -5 0 -8 66 -8 147 0 80 3 143 6
140 4 -4 7 -33 8 -64z m426 57 c0 -6 -26 -10 -63 -10 -35 0 -66 -2 -68 -4 -2
-2 -2 -27 -1 -55 l4 -51 59 0 c35 0 59 -4 59 -11 0 -6 -23 -9 -61 -8 l-61 3 0
-60 0 -59 66 0 c46 0 66 -4 66 -12 0 -9 -23 -13 -80 -13 l-80 0 0 144 0 143
80 2 c50 1 80 -2 80 -9z m163 -118 l82 3 3 63 c2 34 7 62 12 62 6 0 10 -60 10
-145 0 -86 -4 -145 -10 -145 -5 0 -10 33 -12 73 -2 39 -6 71 -10 70 -5 -2 -42
-3 -83 -3 l-75 0 0 -70 c0 -40 -4 -70 -10 -70 -6 0 -10 53 -10 138 0 143 13
205 18 88 l3 -67 82 3z m208 1 c0 -103 3 -124 12 -110 112 172 154 231 165
235 9 3 12 -30 12 -143 0 -113 -3 -146 -12 -142 -10 3 -13 36 -13 119 0 75 -3
114 -10 111 -5 -2 -43 -56 -84 -119 -41 -63 -78 -114 -83 -114 -4 0 -8 65 -8
145 0 90 4 145 10 145 6 0 10 -50 11 -127z m424 117 c4 -6 -20 -10 -64 -10
l-71 0 0 -55 0 -55 66 0 c41 0 63 -4 59 -10 -3 -5 -33 -10 -66 -10 l-59 0 0
-60 0 -60 72 0 c50 0 69 -3 62 -10 -6 -6 -43 -10 -85 -8 l-74 3 -2 143 -3 142
79 0 c44 0 83 -4 86 -10z m357 -135 c0 -94 -3 -140 -11 -143 -8 -3 -11 36 -11
132 l0 136 -45 0 c-53 0 -60 -9 -69 -100 -9 -85 -23 -135 -42 -155 -17 -17
-54 -21 -54 -5 0 6 9 10 20 10 26 0 33 20 55 150 9 58 19 109 22 113 3 5 34 7
70 5 l64 -3 1 -140z m238 135 c0 -5 -30 -10 -66 -12 l-67 -3 -1 -50 -1 -50 63
-3 c34 -2 62 -8 62 -13 0 -7 -23 -9 -59 -7 l-60 3 -3 -58 c-2 -32 -1 -61 1
-63 2 -2 33 -4 68 -4 35 0 63 -4 63 -10 0 -6 -33 -10 -80 -10 l-80 0 0 145 0
145 80 0 c44 0 80 -4 80 -10z m238 4 c42 -12 22 -23 -30 -17 -68 6 -101 -7
-121 -50 -51 -107 16 -220 116 -197 21 4 39 4 42 0 7 -12 -21 -20 -67 -20 -79
0 -128 56 -128 149 0 103 83 163 188 135z m167 -16 c4 -13 13 -36 21 -53 7
-16 27 -66 44 -110 17 -44 34 -86 37 -94 4 -8 1 -12 -7 -9 -7 2 -21 24 -30 48
l-18 45 -63 0 -63 0 -17 -45 c-9 -24 -22 -46 -29 -48 -7 -3 -11 0 -9 5 2 5 19
47 38 94 82 206 83 210 96 167z"/>
<path d="M1410 1750 c0 -6 -8 -29 -19 -50 -10 -21 -16 -41 -13 -44 7 -8 92 -7
92 0 0 23 -37 104 -47 104 -7 0 -13 -5 -13 -10z"/>
<path d="M1976 1775 c-44 -48 -44 -153 0 -200 33 -36 105 -36 139 1 47 50 46
166 -2 204 -38 30 -107 27 -137 -5z"/>
<path d="M2477 1793 c-4 -3 -7 -33 -7 -65 l0 -58 48 0 c36 0 54 5 67 20 24 27
22 70 -5 92 -22 17 -90 25 -103 11z"/>
<path d="M2753 1753 c-3 -10 -12 -33 -19 -52 -20 -49 -19 -51 31 -51 53 0 55
8 25 76 -23 49 -28 52 -37 27z"/>
<path d="M5128 1727 c-10 -30 -18 -59 -18 -65 0 -12 71 -17 82 -7 6 6 -34 125
-42 125 -3 0 -13 -24 -22 -53z"/>
</g>
</svg>
